<?xml version="1.0" encoding="UTF-8" standalone="no"?>
<!-- Created with Inkscape (http://www.inkscape.org/) -->

<svg
   xmlns:dc="http://purl.org/dc/elements/1.1/"
   xmlns:cc="http://creativecommons.org/ns#"
   xmlns:rdf="http://www.w3.org/1999/02/22-rdf-syntax-ns#"
   xmlns:svg="http://www.w3.org/2000/svg"
   xmlns="http://www.w3.org/2000/svg"
   xmlns:sodipodi="http://sodipodi.sourceforge.net/DTD/sodipodi-0.dtd"
   xmlns:inkscape="http://www.inkscape.org/namespaces/inkscape"
   width="283px"
   height="76px"
   viewBox="0 0 283 76"
   version="1.1"
   id="SVGRoot"
   inkscape:version="0.92.3 (2405546, 2018-03-11)"
   sodipodi:docname="white-logo-cut2.svg">
  <sodipodi:namedview
     id="base"
     pagecolor="#ffffff"
     bordercolor="#666666"
     borderopacity="1.0"
     inkscape:pageopacity="0.0"
     inkscape:pageshadow="2"
     inkscape:zoom="1.8091873"
     inkscape:cx="141.5"
     inkscape:cy="38"
     inkscape:document-units="px"
     inkscape:current-layer="layer1"
     showgrid="false"
     inkscape:window-width="1853"
     inkscape:window-height="1025"
     inkscape:window-x="67"
     inkscape:window-y="27"
     inkscape:window-maximized="1" />
  <defs
     id="defs3728" />
  <metadata
     id="metadata3731">
    <rdf:RDF>
      <cc:Work
         rdf:about="">
        <dc:format>image/svg+xml</dc:format>
        <dc:type
           rdf:resource="http://purl.org/dc/dcmitype/StillImage" />
        <dc:title></dc:title>
      </cc:Work>
    </rdf:RDF>
  </metadata>
  <g
     id="layer1"
     inkscape:groupmode="layer"
     inkscape:label="Layer 1">
    <g
       id="layer1-3"
       transform="translate(-11.267656,-8.7989788)">
      <path
         d="m 64.455816,54.150814 v -0.03402 l -0.02646,-41.12186 v -0.03402 c 0,-1.409235 -1.025537,-2.458016 -2.646576,-2.458016 -1.190929,0 -2.315679,1.212586 -2.315679,2.458016 v 0.03402 l 0.02646,41.121902 v 0.03402 c 0,1.343735 1.124787,2.458053 2.481109,2.458016 1.356359,0 2.481146,-1.114318 2.481146,-2.458054 z"
         style="font-style:normal;font-variant:normal;font-weight:normal;font-stretch:normal;font-size:17.69890976px;line-height:1.25;font-family:Manjari;-inkscape-font-specification:Manjari;letter-spacing:0px;word-spacing:0px;fill:#f9f9f9;fill-opacity:1;stroke:#f9f9f9;stroke-width:2.26771665;stroke-miterlimit:4;stroke-dasharray:none;stroke-opacity:1"
         id="path5918-6-4-1-8-5-5-7-3-5-3-5-3-5-7"
         inkscape:connector-curvature="0" />
      <path
         d="m 132.08616,10.603664 -11.45828,0.06539 c -1.30212,0.03402 -2.3763,1.278199 -2.3763,2.589166 l -0.22791,40.598702 c 0,1.343735 1.10684,2.326942 2.40892,2.35971 l 15.55986,0.06539 c 12.46742,-0.06539 19.27087,-11.233172 19.27087,-22.409121 0,-11.601978 -7.32427,-23.367874 -23.17712,-23.269531 z m 18.68489,22.548511 c 0,12.257461 -6.51043,18.509026 -19.01038,18.345184 l -8.85415,-0.06539 0.1954,-35.748208 6.15231,-0.131149 c 12.89065,-0.2948 21.51693,4.883342 21.51693,17.599638 z"
         style="font-style:normal;font-variant:normal;font-weight:normal;font-stretch:normal;font-size:17.69890976px;line-height:1.25;font-family:Manjari;-inkscape-font-specification:Manjari;letter-spacing:0px;word-spacing:0px;fill:#f9f9f9;fill-opacity:1;stroke:#f9f9f9;stroke-width:1.88976383;stroke-miterlimit:4;stroke-dasharray:none;stroke-opacity:1"
         id="path5922-0-9-5-9-0-3-5-1-3-6-6-5-3-5"
         inkscape:connector-curvature="0" />
      <path
         d="m 162.20076,53.570392 c 0,1.343735 1.10679,2.458054 2.44138,2.458054 l 30.40369,-0.03402 h 0.034 c 1.33463,0 2.44142,-1.114356 2.44142,-2.458091 0,-1.343698 -1.10679,-2.458054 -2.44142,-2.458054 h -0.034 l -27.96227,0.03402 -0.034,-15.239925 h 0.26041 l 22.38614,0.164032 h 0.034 c 1.23704,0 2.4415,-1.08155 2.4415,-2.294136 0,-1.605921 -1.04176,-2.621934 -2.4415,-2.621934 l -22.38607,-0.164031 c -0.0975,0 -0.1954,0.03402 -0.32542,0.03402 l -0.034,-15.403767 28.05985,0.03402 h 0.034 c 1.33474,0 2.44146,-1.114318 2.44146,-2.458092 0,-1.343735 -1.10672,-2.458015 -2.44146,-2.458015 h -0.034 l -30.50128,-0.03402 c -1.33462,0 -2.43998,1.784088 -2.43923,2.455332 z"
         style="font-style:normal;font-variant:normal;font-weight:normal;font-stretch:normal;font-size:17.69890976px;line-height:1.25;font-family:Manjari;-inkscape-font-specification:Manjari;letter-spacing:0px;word-spacing:0px;fill:#f9f9f9;fill-opacity:1;stroke:#f9f9f9;stroke-width:1.88976383;stroke-miterlimit:4;stroke-dasharray:none;stroke-opacity:1"
         id="path5924-4-0-6-2-3-5-9-4-5-0-2-6-5-3"
         inkscape:connector-curvature="0" />
      <path
         d="m 239.59864,39.748886 c -1.17188,0 -1.98569,0.524372 -2.40884,1.507616 -2.44143,5.473247 -8.26829,10.291049 -15.78781,10.291049 -10.12369,0 -16.27597,-8.095143 -16.27597,-18.222388 0,-10.061556 6.2174,-18.248541 16.24343,-18.248541 7.55206,0 13.2161,4.51627 15.78777,9.956711 0.42319,0.950476 1.30212,1.442041 2.60417,1.442041 0.94401,0 2.05081,-1.147048 2.05081,-2.425209 0,-0.426066 -0.0979,-0.786558 -0.26041,-1.114318 -3.28778,-6.948132 -10.54685,-12.775332 -20.18234,-12.775332 -12.69532,0 -21.12628,10.350085 -21.12628,23.066343 0,12.912983 8.26817,23.269531 21.22394,23.269531 9.83078,0 17.02477,-6.128731 20.18234,-13.240668 0.1629,-0.327685 0.2279,-0.753827 0.2279,-1.278198 0,-1.048781 -1.20446,-2.228637 -2.27864,-2.228637 z"
         style="font-style:normal;font-variant:normal;font-weight:normal;font-stretch:normal;font-size:17.69890976px;line-height:1.25;font-family:Manjari;-inkscape-font-specification:Manjari;letter-spacing:0px;word-spacing:0px;fill:#f9f9f9;fill-opacity:1;stroke:#f9f9f9;stroke-width:1.88976383;stroke-miterlimit:4;stroke-dasharray:none;stroke-opacity:1"
         id="path5926-8-8-5-7-4-6-2-9-6-6-9-2-6-5"
         inkscape:connector-curvature="0" />
      <path
         id="path5477-8-2-2-1-9-2-6"
         d="m 274.76253,10.925416 v 3.999987 c -0.003,0.443339 -0.0189,0.427918 0.47985,0.525468 7.67006,1.67656 13.13734,8.421883 13.13734,17.75777 0,7.872415 -5.62209,15.521612 -13.21743,17.462173 -0.37341,0.09713 -0.38521,0.106205 -0.39976,0.449915 v 4.367169 c 9.9e-4,0.405316 -9.8e-4,0.396359 0.50922,0.341291 10.80049,-1.75234 17.89315,-10.909569 17.89315,-22.620548 0,-11.612826 -7.11345,-20.961449 -17.73664,-22.840063 -0.6731,-0.140977 -0.66577,-0.109607 -0.66573,0.556838 z"
         style="font-style:normal;font-variant:normal;font-weight:normal;font-stretch:normal;font-size:17.69890976px;line-height:1.25;font-family:Manjari;-inkscape-font-specification:Manjari;letter-spacing:0px;word-spacing:0px;fill:#de2020;fill-opacity:1;stroke:#de2020;stroke-width:2.41889763;stroke-miterlimit:4;stroke-dasharray:none;stroke-opacity:1"
         inkscape:connector-curvature="0" />
      <path
         id="path5928-9-19-9-70-6-2-1-9-2"
         d="m 266.98706,10.378782 c -10.54356,1.890936 -17.81008,11.418255 -17.81008,22.847396 0,11.87913 6.92054,20.961713 17.94312,22.637669 0.43771,0.0446 0.45751,-0.0038 0.46118,-0.344693 v -4.386708 c -0.0227,-0.315591 -0.0454,-0.338646 -0.3069,-0.406829 -7.64821,-1.796749 -13.2144,-9.156775 -13.2144,-17.499439 0,-9.064593 5.07492,-16.118589 13.11084,-17.777802 0.41537,-0.103559 0.42214,-0.151181 0.41072,-0.477883 v -4.107629 c 0.004,-0.53639 -0.0378,-0.554645 -0.59429,-0.484082 z"
         style="font-style:normal;font-variant:normal;font-weight:normal;font-stretch:normal;font-size:17.69890976px;line-height:1.25;font-family:Manjari;-inkscape-font-specification:Manjari;letter-spacing:0px;word-spacing:0px;fill:#f9f9f9;fill-opacity:1;stroke:#f9f9f9;stroke-width:2.26771665;stroke-miterlimit:4;stroke-dasharray:none;stroke-opacity:1"
         inkscape:connector-curvature="0" />
      <g
         transform="matrix(3.9166575,0,0,3.6036942,95.770263,1321.0091)"
         id="text1364-1-7-2-1-9"
         style="font-style:normal;font-variant:normal;font-weight:normal;font-stretch:normal;font-size:9.97504711px;line-height:1.25;font-family:Manjari;-inkscape-font-specification:Manjari;letter-spacing:0px;word-spacing:0px;fill:#f9f9f9;fill-opacity:1;stroke:#f9f9f9;stroke-width:0.50300902;stroke-miterlimit:4;stroke-dasharray:none;stroke-opacity:1"
         aria-label="N">
        <path
           id="path1366-8-0-7-2-1"
           style="font-size:18.62008667px;fill:#f9f9f9;stroke:#f9f9f9;stroke-width:0.50300902;stroke-miterlimit:4;stroke-dasharray:none;stroke-opacity:1"
           d="m -6.0542463,-362.93997 v 11.41026 c 0,0.37276 0.3091225,0.68189 0.6818879,0.68189 0.3727654,0 0.681888,-0.30913 0.681888,-0.68189 v -9.3555 l 7.2643795,9.77372 c 0.1363776,0.18184 0.3091225,0.27276 0.5182348,0.27276 0.4000409,0 0.7091635,-0.29094 0.7091635,-0.68189 l 0.00909,-11.38298 v -0.009 c 0,-0.37277 -0.3091225,-0.68189 -0.6818879,-0.68189 -0.3727654,0 -0.681888,0.30912 -0.681888,0.68189 v 9.34641 l -7.2734713,-9.78282 c -0.1363776,-0.18184 -0.3091225,-0.27276 -0.5182348,-0.27276 -0.400041,0 -0.7091635,0.29094 -0.7091635,0.68189 z"
           inkscape:connector-curvature="0" />
      </g>
      <path
         id="path1468-75-7-6-67-2"
         d="m 52.661736,13.163349 c 0.0083,-0.485064 -0.197291,-1.133896 -0.471606,-1.59171 -0.97209,-1.6234583 -3.202416,-2.2300343 -5.03639,-1.369625 -1.128537,0.529361 -1.931917,1.833524 -1.925998,2.949959 L 45.215269,30.909856 17.0401,10.314228 c -0.962793,-0.5900983 -2.874346,-0.6796353 -3.899887,-0.172346 -1.227953,0.607445 -1.884752,1.770217 -1.884752,2.973278 0,0.348095 -1.1e-5,0.804284 -1.1e-5,1.418911 0,0.469833 0.211124,0.706393 0.677665,1.048856 9.367813,6.784177 26.587998,19.254992 39.951255,28.932624 0.394462,0.275528 0.773114,0.09071 0.773114,-0.359433 l 0.0045,-30.992731 z"
         style="font-style:normal;font-variant:normal;font-weight:normal;font-stretch:normal;font-size:medium;line-height:1.25;font-family:Manjari;-inkscape-font-specification:Manjari;letter-spacing:0px;word-spacing:0px;fill:#de2020;fill-opacity:1;stroke:#de2020;stroke-width:0.18897638;stroke-miterlimit:4;stroke-dasharray:none;stroke-opacity:1"
         inkscape:connector-curvature="0" />
      <path
         id="path1468-75-7-6-67-3-7"
         d="m 11.275727,53.382776 c -0.0076,0.485065 0.197442,1.133896 0.471602,1.591711 0.972098,1.623458 3.202416,2.230034 5.036379,1.369625 1.128537,-0.529361 1.931909,-1.833525 1.926006,-2.949959 l 0.01096,-17.757884 28.175189,20.595629 c 0.962762,0.590097 2.874334,0.679634 3.899871,0.172346 1.227957,-0.607446 1.884745,-1.770217 1.884745,-2.973279 0,-0.348094 0,-0.804283 0,-1.41891 0,-0.469833 -0.211087,-0.706394 -0.677639,-1.048857 C 42.635027,44.179022 25.414838,31.708206 12.051569,22.030574 11.657096,21.755047 11.27846,21.939864 11.27846,22.390007 l -0.0037,30.992732 z"
         style="font-style:normal;font-variant:normal;font-weight:normal;font-stretch:normal;font-size:medium;line-height:1.25;font-family:Manjari;-inkscape-font-specification:Manjari;letter-spacing:0px;word-spacing:0px;fill:#f9f9f9;fill-opacity:1;stroke:#f9f9f9;stroke-width:0.11338583;stroke-miterlimit:4;stroke-dasharray:none;stroke-opacity:1"
         inkscape:connector-curvature="0" />
      <text
         id="text1520-3-0"
         y="81.377724"
         x="152.3063"
         style="font-style:normal;font-variant:normal;font-weight:normal;font-stretch:normal;font-size:40px;line-height:1.25;font-family:Manjari;-inkscape-font-specification:Manjari;letter-spacing:1.5px;word-spacing:7.99999952px;fill:#f9f9f9;fill-opacity:1;stroke:#f9f9f9;stroke-width:0.18897638;stroke-miterlimit:4;stroke-dasharray:none;stroke-opacity:1"
         xml:space="preserve"><tspan
           id="tspan1522-6-9"
           style="font-size:14.66666698px;text-align:center;letter-spacing:1.5px;word-spacing:7.99999952px;text-anchor:middle;fill:#f9f9f9;stroke:#f9f9f9;stroke-width:0.18897638;stroke-linecap:square;stroke-linejoin:miter;stroke-miterlimit:4;stroke-dasharray:none;stroke-opacity:1;paint-order:normal"
           y="81.377724"
           x="153.0563">Dream Driven Development</tspan></text>
    </g>
  </g>
</svg>
